<svg version="1.1" id="Layer_1" xmlns="http://www.w3.org/2000/svg" xmlns:xlink="http://www.w3.org/1999/xlink" x="0px" y="0px"
	 width="100%" viewBox="0 0 1000 845" enable-background="new 0 0 1000 845" xml:space="preserve">
<path fill="#000000" opacity="1.000000" stroke="none" 
	d="
M568.000000,846.000000 
	C378.666656,846.000000 189.833328,846.000000 1.000000,846.000000 
	C1.000000,564.333313 1.000000,282.666656 1.000000,1.000000 
	C334.333344,1.000000 667.666687,1.000000 1001.000000,1.000000 
	C1001.000000,282.666656 1001.000000,564.333313 1001.000000,846.000000 
	C856.833313,846.000000 712.666687,846.000000 568.000000,846.000000 
M501.691833,716.143738 
	C526.189270,740.657043 550.773621,765.084778 575.091248,789.775146 
	C578.783875,793.524475 580.616272,793.040527 584.070068,789.581543 
	C704.390991,669.079529 824.817444,548.682922 945.228760,428.271179 
	C949.999084,423.500824 949.999146,423.499207 945.253967,418.753967 
	C825.195984,298.695770 705.136414,178.639236 585.093323,58.566216 
	C583.246338,56.718769 581.602234,54.668602 579.814087,52.657532 
	C560.348450,72.132767 541.403442,91.124756 522.411072,110.069237 
	C515.355835,117.106667 508.189484,124.032639 500.837555,130.368317 
	C475.059784,104.628128 449.282043,78.887932 423.609924,53.253254 
	C300.049164,176.809296 176.672409,300.181335 53.281261,423.567780 
	C53.407635,423.739532 53.570343,424.032166 53.798012,424.259857 
	C175.989258,546.467529 298.196014,668.659607 420.315674,790.938782 
	C423.329956,793.957031 424.850006,792.719177 427.131104,790.430054 
	C451.009735,766.466675 474.951538,742.566101 498.862457,718.634827 
	C499.671204,717.825439 500.339233,716.875366 501.691833,716.143738 
z"/>
<path fill="#ECE2B6" opacity="1.000000" stroke="none" 
	d="
M501.073792,131.009430 
	C508.189484,124.032639 515.355835,117.106667 522.411072,110.069237 
	C541.403442,91.124756 560.348450,72.132767 579.814087,52.657532 
	C581.602234,54.668602 583.246338,56.718769 585.093323,58.566216 
	C705.136414,178.639236 825.195984,298.695770 945.253967,418.753967 
	C949.999146,423.499207 949.999084,423.500824 945.228760,428.271179 
	C824.817444,548.682922 704.390991,669.079529 584.070068,789.581543 
	C580.616272,793.040527 578.783875,793.524475 575.091248,789.775146 
	C550.773621,765.084778 526.189270,740.657043 501.335419,715.724487 
	C500.534760,714.615784 500.196655,713.820496 499.630646,713.252258 
	C488.105438,701.682495 476.566132,690.126648 464.981079,678.616882 
	C464.206635,677.847534 463.045685,677.467163 461.959717,676.590820 
	C377.636871,591.971985 293.418823,507.668152 209.187805,423.351349 
	C292.492249,340.036621 375.652710,256.867096 458.805542,173.689972 
	C459.971649,172.523499 461.041412,171.260742 462.439331,169.874115 
	C475.506317,156.806702 488.290070,143.908066 501.073792,131.009430 
M540.171875,170.047806 
	C539.608521,170.376785 538.943787,170.604019 538.496582,171.049606 
	C526.827759,182.677536 515.168945,194.315643 503.559998,206.003235 
	C502.797272,206.771164 502.445251,207.947037 501.269287,209.152603 
	C429.974640,280.327820 358.679993,351.503021 286.975861,423.087036 
	C289.065155,424.912201 290.519653,426.040436 291.811249,427.331604 
	C360.401611,495.900177 428.977478,564.483215 497.561340,633.058350 
	C498.959442,634.456299 500.433319,635.778503 501.906586,637.822083 
	C502.250732,638.376465 502.503662,639.021790 502.952332,639.472046 
	C514.613342,651.173889 526.281677,662.868530 538.002502,674.510376 
	C538.758911,675.261658 539.946777,675.578552 541.152588,676.730652 
	C553.828186,689.573792 566.503784,702.416870 578.551453,714.623779 
	C676.309387,616.866333 773.466797,519.709473 870.213379,422.963379 
	C773.327271,326.077209 676.117432,228.867264 579.554504,132.304245 
	C566.858948,144.652237 553.851807,157.303268 540.171875,170.047806 
z"/>
<path fill="#80A499" opacity="1.000000" stroke="none" 
	d="
M462.064514,676.905884 
	C463.045685,677.467163 464.206635,677.847534 464.981079,678.616882 
	C476.566132,690.126648 488.105438,701.682495 499.630646,713.252258 
	C500.196655,713.820496 500.534760,714.615784 501.025940,715.648071 
	C500.339233,716.875366 499.671204,717.825439 498.862457,718.634827 
	C474.951538,742.566101 451.009735,766.466675 427.131104,790.430054 
	C424.850006,792.719177 423.329956,793.957031 420.315674,790.938782 
	C298.196014,668.659607 175.989258,546.467529 53.798012,424.259857 
	C53.570343,424.032166 53.407635,423.739532 53.281261,423.567780 
	C176.672409,300.181335 300.049164,176.809296 423.609924,53.253254 
	C449.282043,78.887932 475.059784,104.628128 500.955688,130.688873 
	C488.290070,143.908066 475.506317,156.806702 462.303162,169.559631 
	C449.089325,156.651917 436.294861,143.889877 424.072968,131.698944 
	C326.441589,229.330154 229.071976,326.699585 132.423615,423.347809 
	C229.269531,520.194092 326.427704,617.352661 424.202759,715.128113 
	C425.565613,713.529907 427.155273,711.377808 429.031006,709.513611 
	C440.005096,698.607056 451.046051,687.767822 462.064514,676.905884 
z"/>
<path fill="#000000" opacity="1.000000" stroke="none" 
	d="
M501.871826,637.136047 
	C500.433319,635.778503 498.959442,634.456299 497.561340,633.058350 
	C428.977478,564.483215 360.401611,495.900177 291.811249,427.331604 
	C290.519653,426.040436 289.065155,424.912201 286.975861,423.087036 
	C358.679993,351.503021 429.974640,280.327820 501.700531,209.370026 
	C573.262756,280.640930 644.393738,351.694427 715.975891,423.198547 
	C713.787292,425.103180 712.194214,426.330170 710.783875,427.739990 
	C642.330505,496.167053 573.891541,564.608582 505.463959,633.061523 
	C504.186401,634.339539 503.065674,635.774353 501.871826,637.136047 
z"/>
<path fill="#000000" opacity="1.000000" stroke="none" 
	d="
M461.959717,676.590820 
	C451.046051,687.767822 440.005096,698.607056 429.031006,709.513611 
	C427.155273,711.377808 425.565613,713.529907 424.202759,715.128113 
	C326.427704,617.352661 229.269531,520.194092 132.423615,423.347809 
	C229.071976,326.699585 326.441589,229.330154 424.072968,131.698944 
	C436.294861,143.889877 449.089325,156.651917 462.019958,169.728424 
	C461.041412,171.260742 459.971649,172.523499 458.805542,173.689972 
	C375.652710,256.867096 292.492249,340.036621 209.187805,423.351349 
	C293.418823,507.668152 377.636871,591.971985 461.959717,676.590820 
z"/>
<path fill="#000000" opacity="1.000000" stroke="none" 
	d="
M540.844604,169.954315 
	C553.851807,157.303268 566.858948,144.652237 579.554504,132.304245 
	C676.117432,228.867264 773.327271,326.077209 870.213379,422.963379 
	C773.466797,519.709473 676.309387,616.866333 578.551453,714.623779 
	C566.503784,702.416870 553.828186,689.573792 541.370361,676.299316 
	C624.183594,593.288574 706.779053,510.709320 789.374084,428.129578 
	C794.004639,423.499847 794.003479,423.497711 789.435486,418.929657 
	C707.791687,337.285736 626.147034,255.642868 544.512024,173.990219 
	C543.228210,172.706177 542.064392,171.302277 540.844604,169.954315 
z"/>
<path fill="#80A499" opacity="1.000000" stroke="none" 
	d="
M540.508240,170.001053 
	C542.064392,171.302277 543.228210,172.706177 544.512024,173.990219 
	C626.147034,255.642868 707.791687,337.285736 789.435486,418.929657 
	C794.003479,423.497711 794.004639,423.499847 789.374084,428.129578 
	C706.779053,510.709320 624.183594,593.288574 541.261108,675.982727 
	C539.946777,675.578552 538.758911,675.261658 538.002502,674.510376 
	C526.281677,662.868530 514.613342,651.173889 502.952332,639.472046 
	C502.503662,639.021790 502.250732,638.376465 501.889191,637.479065 
	C503.065674,635.774353 504.186401,634.339539 505.463959,633.061523 
	C573.891541,564.608582 642.330505,496.167053 710.783875,427.739990 
	C712.194214,426.330170 713.787292,425.103180 715.975891,423.198547 
	C644.393738,351.694427 573.262756,280.640930 502.016968,209.260300 
	C502.445251,207.947037 502.797272,206.771164 503.559998,206.003235 
	C515.168945,194.315643 526.827759,182.677536 538.496582,171.049606 
	C538.943787,170.604019 539.608521,170.376785 540.508240,170.001053 
z"/>
</svg>