<?xml version="1.0" encoding="UTF-8"?>
<!DOCTYPE svg PUBLIC "-//W3C//DTD SVG 1.1//EN" "http://www.w3.org/Graphics/SVG/1.1/DTD/svg11.dtd">
<svg xmlns="http://www.w3.org/2000/svg" version="1.1" width="1000px" height="845px" style="shape-rendering:geometricPrecision; text-rendering:geometricPrecision; image-rendering:optimizeQuality; fill-rule:evenodd; clip-rule:evenodd" xmlns:xlink="http://www.w3.org/1999/xlink">
<g><path style="opacity:0.984" fill="#80a499" d="M 499.5,129.5 C 487.756,142.747 475.422,155.581 462.5,168C 461.906,168.464 461.239,168.631 460.5,168.5C 447.869,155.368 435.035,142.368 422,129.5C 324.5,227 227,324.5 129.5,422C 226.5,519 323.5,616 420.5,713C 421.167,713.667 421.833,713.667 422.5,713C 435.035,700.298 447.702,687.798 460.5,675.5C 473.747,687.244 486.581,699.578 499,712.5C 499.464,713.094 499.631,713.761 499.5,714.5C 474.368,740.132 449.035,765.632 423.5,791C 422.5,791.667 421.5,791.667 420.5,791C 297.5,668 174.5,545 51.5,422C 175,298.5 298.5,175 422,51.5C 448.035,77.368 473.868,103.368 499.5,129.5 Z"/></g>
<g><path style="opacity:0.981" fill="#ebe1b5" d="M 499.5,714.5 C 499.631,713.761 499.464,713.094 499,712.5C 486.581,699.578 473.747,687.244 460.5,675.5C 376.368,590.868 292.035,506.368 207.5,422C 292.035,337.632 376.368,253.132 460.5,168.5C 461.239,168.631 461.906,168.464 462.5,168C 475.422,155.581 487.756,142.747 499.5,129.5C 525.799,103.702 551.965,77.7016 578,51.5C 701.54,174.706 824.706,298.206 947.5,422C 825.206,545.294 702.54,668.294 579.5,791C 578.5,791.667 577.5,791.667 576.5,791C 550.965,765.298 525.299,739.798 499.5,714.5 Z M 539.5,675.5 C 623.672,591.162 707.672,506.662 791.5,422C 707.672,337.338 623.672,252.838 539.5,168.5C 552.131,155.368 564.965,142.368 578,129.5C 675.347,226.68 772.514,324.014 869.5,421.5C 772.514,518.986 675.347,616.32 578,713.5C 565.298,700.631 552.465,687.965 539.5,675.5 Z M 499.5,207.5 C 571.146,278.479 642.479,349.812 713.5,421.5C 642.479,493.188 571.146,564.521 499.5,635.5C 428.521,564.188 357.521,492.854 286.5,421.5C 357.521,350.146 428.521,278.812 499.5,207.5 Z"/></g>
<g><path style="opacity:0.979" fill="#80a499" d="M 539.5,168.5 C 623.672,252.838 707.672,337.338 791.5,422C 707.672,506.662 623.672,591.162 539.5,675.5C 525.833,662.5 512.5,649.167 499.5,635.5C 571.146,564.521 642.479,493.188 713.5,421.5C 642.479,349.812 571.146,278.479 499.5,207.5C 512.218,193.78 525.552,180.78 539.5,168.5 Z"/></g>
</svg>
