<?xml version="1.0" encoding="utf-8"?>
<!-- Generator: Adobe Illustrator 24.1.2, SVG Export Plug-In . SVG Version: 6.00 Build 0)  -->
<svg version="1.1" id="Layer_1" xmlns="http://www.w3.org/2000/svg" xmlns:xlink="http://www.w3.org/1999/xlink" x="0px" y="0px"
	 viewBox="0 0 595.28 589.03" style="enable-background:new 0 0 595.28 589.03;" xml:space="preserve">
<style type="text/css">
	.st0{fill:#30B097;}
	.st1{fill:#F6AF36;}
	.st2{fill:#A7C93F;}
	.st3{fill-rule:evenodd;clip-rule:evenodd;fill:#9E2464;}
	.st4{fill-rule:evenodd;clip-rule:evenodd;fill:#5C335F;}
</style>
<g>
	<g>
		<path class="st0" d="M43.4,221.07c0,0,63.09,106.78,182,106.78s125.43-84.36,145.97-130.72c6.49-14.64,39.67-76.77,86.99-29.45
			c47.32,47.32,27.83,90.2,21.11,106.75c-10.82,26.66-63.58,134.71-206.76,134.71C129.55,409.15,68.88,278.1,43.4,221.07z"/>
		<path class="st1" d="M484.06,186.87c4.46,1.71-3.7-4.05-9.59-8.05c0.7-1.3,1.32-2.73,1.78-4.32
			c3.29-11.26,16.38-22.77,25.47-25.24c9.09-2.47,27-4.12,27-4.12l-9.37-16.73c0,0-27.06-1.6-35.44,11.46
			c-8.39,13.07-27.42,23.72-27.42,23.72l-1.4,0.78l-8.04-6.22c0,0-7.54-11.62-17.34-8.55c-9.8,3.07-9.8,3.07-9.8,3.07
			s11.52,5.61,8.81,15.74c-2.7,10.13-2.7,10.13-2.7,10.13s22.6-0.74,32.59,13.36c9.99,14.1,9.99,14.1,9.99,14.1l6.21,1.76
			C474.82,207.75,477.41,184.33,484.06,186.87z"/>
		<path class="st2" d="M431.58,217.66c0,6.44-5.22,11.66-11.66,11.66c-6.44,0-11.66-5.22-11.66-11.66c0-6.44,5.22-11.66,11.66-11.66
			C426.36,205.99,431.58,211.22,431.58,217.66z"/>
	</g>
	<path class="st3" d="M530.15,461.14c2.3-5.52-4.03-13.64-13.47-22.69c-0.69-2.56,0.01-3.57-1.48-5.99
		c-7.47-12.12-24.63-14.35-34.05-17.28c-7.17-6.86-12.5-4.45-25.98-17.48c-8.21-7.93-17.99-36.27-26.97-48.25
		c-25.28,24.41-61.06,47.06-110.44,55.84c-0.02,0.03-0.06,0.05-0.07,0.09c1.39,2.71,5.48,1.91,7.99,4.16
		c-2.85,1.6-0.15,1.65-2.71,2.72c2.19,0.89,4.35-0.78,6.54-0.31c1.11,1.01,0.57,1.52,0.73,2.23c1.26-0.12,2.52-0.5,3.78-0.63
		c0.95,1.35,1.85,3.63,4.86,1.96c0.95,3.41,5.43,4.89,8.39,7.05c0.3,1.94-2.3,3.01-1.29,5.16c3.49,2.78,6.93,2.62,10.4,4.13
		c0.61,1.62-1.55,2.4,0.42,4.41c2.55,1.64,5.07,1.17,7.62,2.8c0.21,1.41-0.73,2.47,0.76,4.26c2.77,1.15,5.55,2.04,8.3,1.99
		c1.53,2.05,1.41,3.62,3.2,5.74c3.13,1.4,6.22,0.59,9.32,1.04c1.45,1.94,1.31,3.42,4.23,5.81c2.98-0.32,5.97-0.08,8.95-0.33
		c1.91,2,2.5,3.61,4.57,5.66c1.62,0.37,3.22,0.15,4.82-0.06c1.31,4.35,9.17,12.91,14.29,9.58c1.46,2-1.14,3.47,0.44,5.93
		c2,3.11,5.48,5.56,8.01,5.19c5.53-0.81,1.59-11.47,9.83-9.4c-2.32,4.34-5.8,11.49,4.77,17.31c7.16-4.32,4.74-11.51,10.4-16.28
		c1.4,6.53-2.8,15.69,9.68,22.31c3.75-6.67,3.5-15.64,4.77-23.52c0.37-2.3-0.27-6.06,2.99-6.4c0.35,7.6,4.52,29.55,19.5,32.82
		c2.34-11.97-7.84-27.72-7.22-40.22c4.04,10.78,16.57,36.84,34.85,43.98c1.66-10.51-13.18-25.97-18.22-38.49
		c11.33,14.09,25.05,28.72,40.57,35.88c-1.07-9.38-14.23-22.18-25.05-34.49c-4.26-4.85-9.16-10.18-10.93-14.62
		c12.61,12.22,25.23,24.74,37.73,30.99c2.06,1.71,2.07,2.81,3.87,4.44C549.61,481.27,539.85,471.19,530.15,461.14z M513.89,436.6
		c-1.99-2.01-3.95-2.93-5.93-4.55C509.9,430.69,516.07,435.09,513.89,436.6z"/>
	<path class="st4" d="M201.79,204.58c1.51,13.42,12.83,17.42,23.19,22.33c-4.16-0.9-11.3-1.91-12.38,1.52
		c-1.62,5.17,8.11,9.78,10.71,11.15c-2.35-0.29-5.43-0.88-6.36,0.23c-1.07,1.27-1.16,8.51,1.55,10.61
		c-5.91,6.34,3.88,10.69,9.28,12.53c-2.13,0.66-3.91,1.32-3.95,3.45c-0.11,6.18,15.14,6.09,22.12,5.38
		c1.04-0.46,15.61-3.03,22.25-1.32c-5,2.47-12.87,1.97-20.15,2.07c-1.04,0.47-16.57,1.33-19.12,3.5c-0.34,2.17,1.57,2.18,2.05,3.57
		c-7.1,4.06,5.12,7.98,9.71,8.31c-5.14,1.13-12.05,0.41-15.24,3.58c1.49,5.26,8.32,5.37,13.98,6.62c-3.27,0.85-8.11,0.46-8.53,3.36
		c-0.6,4.14,7.71,5.21,11.86,6.59c-7.43,3.77,0.38,11.37,6.53,8.95c-2.74,1.15-6.24,2.36-6.1,5.17c0.17,3.32,4.82,3.95,8.92,4.08
		c51.23-6.49,76.46-31.92,91.92-60.59c-8.44-8.8-18.2-16.81-24.08-27.64c-9.38-17.27-23.12-39.21-24.11-62.6
		c-0.59-13.99-5.61-13.09-2.41-25.21c1.85-7.03-1.82-34.33-3.34-40.88c-3.15-0.52-4.07,3.2-5.36,3.42
		c3.33-11.97,8.87-28.1,10.03-43.19c0.36-4.69,0.8-12.6-1.12-14.84c-2.93-1.1-7.23,1.06-9.23,2.99
		c-9.81,9.44-12.55,31.94-16.8,46.59c-0.25-1.74,0.36-3.58,0.45-4.93c0.6-8.9,3.57-33.21-3.22-33.58c-2.64-0.14-6.8,5.54-8.63,8.29
		c-2.57,3.87-4.45,7.74-5.86,11.17c-6.74,16.4-7.22,41.68-5.43,60.91c-0.49-3.8-2.36-14.05-2.86-16.98
		c-0.96-5.66-1.24-11.15-2.88-14.87c-0.2,0.51-0.57,0.85-1.08,1.04c2.02-3.94-1.32-12.32-5.04-12.45c-5.17-0.18-5.87,8.5-8.36,12.18
		c2.23,2.01,1.95,1.4-0.36,0.7c-1.14,4.46-2.66,8.51-2.4,14.42c0.59,0.94,1.9-2.3,2.5-1.36c-1.21,0.91-2.22,1.5-2.53,3.12
		c-1.32,6.82,5.98,18.62,5.89,23.4c-1.45-3.23-3.24-5.99-5.46-9.28c-1.63-2.42-4.86-7.99-6.89-8.25c-0.46-0.06-3.36,2.27-1.41,0.32
		c2.15-2.15-2.07-3-4.16-3.61c-2.83,1.85-3.67,5.78-3.74,10.51c0.01,1.25,1.18-0.73,1.05,0.37c-1.61,7.33,4.91,14.63,6.66,19.89
		c-2.87-2.03-6.16-5.31-10.85-4.45c-2,8.52,3.19,15.33,7.34,20.96c3.75,5.08,7.97,9.53,11.37,13.63c-3.38-2.92-6.63-6.54-10.4-9.38
		c-3.56-2.69-7.64-6.46-13.29-5.91c-1.88,11.88,9.37,18.87,13.96,25.67C209.35,204.83,204.61,202.22,201.79,204.58z"/>
</g>
</svg>
